HIERARCHY
ROOT Hips
{
	OFFSET 0.000000 0.000000 0.000000 
	CHANNELS 6 Xposition Yposition Zposition Yrotation Zrotation Xrotation 
	JOINT Lumbar
	{
		OFFSET 0.000000 0.000000 0.000000 
		CHANNELS 3 Zrotation Xrotation Yrotation
		JOINT Neck
		{
			OFFSET 0.000000 0.445665 0.000000 
			CHANNELS 3 Zrotation Xrotation Yrotation
			End Site
			{
				OFFSET 0.000000 0.227535 0.000000 
			}
		}
		JOINT RightShoulder
		{
			OFFSET 0.019635 0.377685 0.194865 
			CHANNELS 3 Zrotation Xrotation Yrotation
			JOINT RightElbow
			{
				OFFSET 0.000000 -0.243375 0.000000 
				CHANNELS 2 Zrotation Yrotation
				JOINT RightWrist
				{
					OFFSET 0.000000 -0.264825 0.000000 
					CHANNELS 2 Zrotation Xrotation
					End Site
					{
						OFFSET 0.006600 -0.176220 0.000990 
					}
				}
			}
		}
		JOINT LeftShoulder
		{
			OFFSET 0.019635 0.377685 -0.194865 
			CHANNELS 3 Zrotation Xrotation Yrotation
			JOINT LeftElbow
			{
				OFFSET 0.000000 -0.243375 0.000000 
				CHANNELS 2 Zrotation Yrotation
				JOINT LeftWrist
				{
					OFFSET 0.000000 -0.264825 0.000000 
					CHANNELS 2 Zrotation Xrotation
					End Site
					{
						OFFSET 0.006600 -0.176220 -0.000990 
					}
				}
			}
		}
	}
	JOINT RightHip
	{
		OFFSET 0.052140 -0.069960 0.075570 
		CHANNELS 3 Zrotation Xrotation Yrotation
		JOINT RightKnee
		{
			OFFSET 0.000000 -0.402270 0.000000 
			CHANNELS 1 Zrotation
			JOINT RightAnkle
			{
				OFFSET 0.000000 -0.404085 0.000000 
				CHANNELS 3 Zrotation Xrotation Yrotation
				End Site
				{
					OFFSET 0.204105 -0.089430 0.008415 
				}
			}
		}
	}
	JOINT LeftHip
	{
		OFFSET 0.052140 -0.069960 -0.075570 
		CHANNELS 3 Zrotation Xrotation Yrotation
		JOINT LeftKnee
		{
			OFFSET 0.000000 -0.402270 0.000000 
			CHANNELS 1 Zrotation
			JOINT LeftAnkle
			{
				OFFSET 0.000000 -0.404085 0.000000 
				CHANNELS 3 Zrotation Xrotation Yrotation
				End Site
				{
					OFFSET 0.204105 -0.089430 -0.008415 
				}
			}
		}
	}
}
MOTION
Frames: 14
Frame Time: 0.02
0.00038 2e-05 -0.00028 19.57993 -34.15813 -3.40307 58.02021 0.48459 0.22611 -8.46881 -0.62953 -1.2244 9.78082 -103.72025 -87.14671 5.78689 57.37464 -20.51607 1.75508 166.38432 73.06528 50.99784 13.88575 -92.13394 -8.02054 9.12228 47.21932 -4.61819 -20.98775 -19.25072 -7.28908 -3.38563 -3.89314 50.82075 3.44575 2.85944 -24.37267 -8.97354 4.2706 4.45903
0.00013 -3e-05 -0.0002 19.53467 -34.15958 -3.40501 58.00962 0.47826 0.25103 -8.49414 -0.63112 -1.22361 9.96324 -103.64019 -87.1467 5.78689 57.42263 -20.61578 1.82121 166.38454 73.07833 50.86814 13.89321 -92.12471 -8.05438 9.1496 47.2734 -4.52049 -20.40239 -19.25013 -7.32893 -3.42173 -3.91709 50.82525 3.54742 3.31366 -24.37225 -8.93238 4.24708 4.44304
-0.00013 -7e-05 -0.00012 19.48952 -34.16101 -3.40695 57.99904 0.47195 0.27587 -8.51945 -0.63273 -1.22281 10.14519 -103.56031 -87.14669 5.78689 57.47048 -20.71526 1.88711 166.38475 73.09136 50.73856 13.90071 -92.1155 -8.08816 9.17686 47.32735 -4.42305 -19.81857 -19.24955 -7.36869 -3.45774 -3.94097 50.82973 3.64888 3.7669 -24.37183 -8.89131 4.2236 4.42709
-0.00039 -0.00011 -5e-05 19.44439 -34.16245 -3.40889 57.98848 0.46565 0.30071 -8.54471 -0.63432 -1.22201 10.32707 -103.48048 -87.14668 5.78689 57.51831 -20.81467 1.95303 166.38497 73.10436 50.6092 13.90816 -92.1063 -8.1219 9.2041 47.38128 -4.32564 -19.23497 -19.24897 -7.40843 -3.49373 -3.96484 50.83422 3.75026 4.21979 -24.37141 -8.85026 4.20014 4.41115
-0.00064 -0.00015 3e-05 19.39918 -34.16391 -3.41083 57.97791 0.45931 0.32562 -8.56998 -0.6359 -1.22121 10.50938 -103.4005 -87.14667 5.78689 57.56629 -20.91427 2.01919 166.38518 73.11738 50.47987 13.91553 -92.09708 -8.15567 9.2314 47.43531 -4.22799 -18.64992 -19.24836 -7.44825 -3.5298 -3.98877 50.83871 3.85182 4.67349 -24.37099 -8.80914 4.17664 4.39518
-0.0009 -0.00019 0.00011 19.35415 -34.1653 -3.41277 57.96733 0.45306 0.35032 -8.59539 -0.63756 -1.22042 10.69058 -103.32084 -87.14666 5.78689 57.61388 -21.01351 2.08453 166.3854 73.13044 50.3498 13.92329 -92.0879 -8.18946 9.25857 47.4891 -4.13099 -18.06875 -19.24784 -7.48788 -3.56568 -4.01253 50.84317 3.95304 5.12573 -24.37057 -8.76818 4.1532 4.37927
-0.00116 -0.00024 0.00019 19.3088 -34.16682 -3.4147 57.95677 0.44666 0.37541 -8.62046 -0.63905 -1.21962 10.87379 -103.24063 -87.14665 5.78689 57.66216 -21.11337 2.15145 166.38562 73.14339 50.22124 13.93028 -92.07867 -8.22321 9.28597 47.54333 -4.03279 -17.48039 -19.24716 -7.52785 -3.6019 -4.03661 50.8477 4.05485 5.58042 -24.37015 -8.72695 4.12968 4.36326
-0.00142 -0.00028 0.00026 19.26376 -34.16821 -3.41664 57.94618 0.44039 0.40014 -8.64587 -0.64069 -1.21882 11.05517 -103.1609 -87.14664 5.78689 57.70987 -21.21261 2.21693 166.38583 73.15646 50.09151 13.93793 -92.06945 -8.25694 9.31316 47.59713 -3.9357 -16.89871 -19.24662 -7.5675 -3.6378 -4.0604 50.85216 4.1561 6.03281 -24.36973 -8.68596 4.10623 4.34734
-0.00168 -0.00032 0.00034 19.21902 -34.16947 -3.41861 57.9356 0.43431 0.42446 -8.6716 -0.64254 -1.21804 11.23435 -103.08182 -87.14665 5.78689 57.75666 -21.31135 2.2806 166.38605 73.16959 49.95935 13.94664 -92.06036 -8.29089 9.3401 47.6505 -3.83989 -16.32472 -19.24627 -7.60681 -3.67334 -4.08385 50.85657 4.25679 6.48285 -24.36932 -8.64524 4.08283 4.33151
-0.00193 -0.00036 0.00042 19.1723 -34.17159 -3.42044 57.92513 0.4272 0.4512 -8.69522 -0.64328 -1.21719 11.4263 -102.99919 -87.14661 5.78689 57.80808 -21.41377 2.35455 166.38627 73.18213 49.83815 13.95001 -92.05087 -8.32432 9.36851 47.70664 -3.73646 -15.70504 -19.24487 -7.64822 -3.71107 -4.1093 50.86136 4.36107 6.94782 -24.36886 -8.6029 4.05904 4.31512
-0.00219 -0.0004 0.0005 19.12991 -34.17182 -3.42255 57.91433 0.42224 0.47283 -8.72344 -0.64631 -1.21648 11.59121 -102.92395 -87.1466 5.7869 57.85012 -21.5079 2.40686 166.38647 73.19608 49.69583 13.96414 -92.04202 -8.35833 9.39378 47.75678 -3.64931 -15.18276 -19.24567 -7.68511 -3.74412 -4.13049 50.86531 4.45752 7.38029 -24.36852 -8.56406 4.03615 4.29994
-0.00251 -0.00045 0.00057 19.09833 -34.16761 -3.42574 57.90331 0.42344 0.48039 -8.76337 -0.65589 -1.21616 11.68403 -102.86942 -87.14671 5.78689 57.86295 -21.58286 2.39865 166.38657 73.21274 49.47902 14.01188 -92.03542 -8.39788 9.41087 47.79156 -3.60557 -14.92176 -19.25269 -7.71023 -3.76485 -4.14013 50.86723 4.53436 7.7312 -24.36833 -8.53409 4.01514 4.28782
-0.00284 -0.0005 0.00063 19.0713 -34.16137 -3.42917 57.89184 0.42676 0.48283 -8.80809 -0.66767 -1.21596 11.75063 -102.82182 -87.14641 5.78691 57.867 -21.64855 2.36878 166.38659 73.23122 49.24452 14.06948 -92.02851 -8.43693 9.42484 47.82013 -3.57838 -14.75952 -19.26189 -7.7307 -3.7808 -4.14548 50.86826 4.60301 8.04816 -24.36829 -8.50777 3.99514 4.27695
-0.00316 -0.00055 0.0007 19.0429 -34.15557 -3.43229 57.88016 0.42893 0.48763 -8.85123 -0.67826 -1.2157 11.82622 -102.77125 -87.14683 5.78688 57.87733 -21.71653 2.34974 166.38677 73.24934 49.02833 14.12012 -92.02253 -8.47409 9.43978 47.8508 -3.54446 -14.55617 -19.26996 -7.75286 -3.7986 -4.1527 50.86953 4.67413 8.37554 -24.36829 -8.48029 3.97507 4.26569
